<?xml version="1.0" encoding="UTF-8" standalone="yes"?>
<!DOCTYPE svg PUBLIC "-//W3C//DTD SVG 1.1//EN" "http://www.w3.org/Graphics/SVG/1.1/DTD/svg11.dtd">

<svg width="220" height="70" viewBox="0 0 220 70" xmlns="http://www.w3.org/2000/svg" xmlns:xlink="http://www.w3.org/1999/xlink" version="1.1" baseProfile="full">
    <g transform="scale(1,-1) translate(0,-70)">
        <path d="M 48.906647 39.467773 Q 48.838287 32.700195 46.855865 26.923828 Q 44.873444 21.147461 41.558014 17.114258 Q 38.242584 13.081055 33.935944 10.244141 Q 29.629303 7.407227 24.980865 6.074219 Q 20.332428 4.741211 15.615631 4.741211 Q 10.283600 4.741211 7.207428 7.578125 Q 4.131256 10.415039 4.131256 13.969727 Q 4.131256 16.567383 5.874420 18.276367 Q 7.617584 19.985352 10.830475 19.985352 Q 12.266022 19.985352 13.906647 19.575195 Q 14.658600 13.833008 21.152740 13.833008 Q 29.082428 13.833008 32.261139 20.122070 Q 35.439850 26.411133 35.439850 39.877930 Q 35.439850 100.102539 35.166412 105.708008 Q 35.166412 109.604492 34.824615 112.407227 Q 34.482819 115.209961 33.935944 116.611328 Q 33.389069 118.012695 32.773834 119.208984 Q 32.158600 120.405273 31.543365 121.088867 L 32.500397 123.481445 L 35.644928 124.370117 Q 38.857819 125.258789 42.207428 125.258789 Q 46.582428 125.258789 50.137115 123.618164 Q 48.769928 92.172852 48.769928 68.178711 Q 48.769928 64.282227 48.838287 53.652344 Q 48.906647 43.022461 48.906647 39.467773 Z M 78.164459 90.942383 Q 78.164459 94.086914 77.856842 96.376953 Q 77.549225 98.666992 77.070709 99.794922 Q 76.592194 100.922852 76.045319 101.914062 Q 75.498444 102.905273 74.951569 103.452148 L 75.771881 105.229492 L 93.955475 105.229492 L 114.668365 105.708008 Q 116.035553 104.409180 116.650787 101.367188 Q 117.266022 98.325195 117.095123 95.659180 Q 116.924225 92.993164 116.240631 92.377930 L 113.984772 92.377930 Q 113.369537 94.907227 109.814850 96.616211 Q 106.260162 98.325195 101.269928 98.530273 L 91.767975 98.803711 Q 90.879303 84.243164 90.879303 72.348633 L 109.131256 72.348633 Q 110.771881 72.348633 111.899811 72.758789 Q 113.027740 73.168945 113.301178 73.579102 L 113.574615 73.920898 L 113.711334 72.963867 Q 113.848053 72.006836 113.848053 71.254883 Q 113.848053 69.067383 112.822662 67.597656 Q 111.797272 66.127930 109.883209 65.546875 Q 107.969147 64.965820 106.465240 64.794922 Q 104.961334 64.624023 102.910553 64.624023 L 90.879303 64.624023 Q 90.674225 51.909180 91.152740 39.741211 Q 91.152740 39.604492 91.426178 39.057617 L 113.574615 39.057617 Q 115.215240 39.057617 116.343170 39.433594 Q 117.471100 39.809570 117.744537 40.219727 L 118.086334 40.561523 Q 118.359772 40.561523 118.359772 37.895508 Q 118.359772 35.708008 117.300201 34.238281 Q 116.240631 32.768555 114.360748 32.153320 Q 112.480865 31.538086 110.976959 31.367188 Q 109.473053 31.196289 107.422272 31.196289 L 78.027740 31.196289 L 78.164459 38.784180 Z M 140.576569 90.942383 Q 140.576569 94.086914 140.268951 96.376953 Q 139.961334 98.666992 139.482819 99.794922 Q 139.004303 100.922852 138.457428 101.914062 Q 137.910553 102.905273 137.363678 103.452148 L 138.183990 105.229492 L 156.367584 105.229492 L 177.080475 105.708008 Q 178.447662 104.409180 179.062897 101.367188 Q 179.678131 98.325195 179.507233 95.659180 Q 179.336334 92.993164 178.652740 92.377930 L 176.396881 92.377930 Q 175.781647 94.907227 172.226959 96.616211 Q 168.672272 98.325195 163.682037 98.530273 L 154.180084 98.803711 Q 153.291412 84.243164 153.291412 72.348633 L 171.543365 72.348633 Q 173.183990 72.348633 174.311920 72.758789 Q 175.439850 73.168945 175.713287 73.579102 L 175.986725 73.920898 L 176.123444 72.963867 Q 176.260162 72.006836 176.260162 71.254883 Q 176.260162 69.067383 175.234772 67.597656 Q 174.209381 66.127930 172.295319 65.546875 Q 170.381256 64.965820 168.877350 64.794922 Q 167.373444 64.624023 165.322662 64.624023 L 153.291412 64.624023 Q 153.086334 51.909180 153.564850 39.741211 Q 153.564850 39.604492 153.838287 39.057617 L 175.986725 39.057617 Q 177.627350 39.057617 178.755280 39.433594 Q 179.883209 39.809570 180.156647 40.219727 L 180.498444 40.561523 Q 180.771881 40.561523 180.771881 37.895508 Q 180.771881 35.708008 179.712311 34.238281 Q 178.652740 32.768555 176.772858 32.153320 Q 174.892975 31.538086 173.389069 31.367188 Q 171.885162 31.196289 169.834381 31.196289 L 140.439850 31.196289 L 140.576569 38.784180 Z M 260.957428 55.258789 Q 261.230865 55.258789 261.230865 91.284180 Q 261.230865 99.897461 258.017975 103.452148 L 258.838287 105.229492 Q 260.820709 106.665039 265.400787 106.665039 Q 269.707428 106.665039 271.279694 105.366211 Q 269.775787 78.159180 269.775787 52.592773 Q 269.775787 41.860352 270.322662 31.196289 L 262.051178 31.196289 L 216.865631 80.209961 L 214.609772 83.012695 Q 212.353912 85.883789 211.807037 87.182617 Q 212.217194 85.336914 212.217194 82.124023 Q 212.217194 79.458008 212.080475 73.818359 Q 211.943756 68.178711 211.943756 65.375977 Q 211.943756 40.151367 213.174225 31.196289 L 203.535553 31.196289 L 203.535553 33.041992 Q 203.672272 47.602539 203.672272 72.895508 L 203.672272 91.284180 Q 203.672272 95.932617 203.057037 98.530273 Q 202.441803 101.127930 200.596100 103.452148 L 201.416412 105.229492 Q 203.125397 105.913086 205.859772 106.391602 Q 208.594147 106.870117 210.371490 106.391602 L 257.334381 55.395508 Q 258.838287 53.754883 260.342194 51.020508 L 261.777740 48.286133 L 261.367584 51.020508 Q 260.957428 53.754883 260.957428 55.258789 Z M 313.525787 31.196289 L 299.375397 31.196289 Q 299.648834 38.442383 299.648834 91.284180 Q 299.648834 94.428711 299.341217 96.650391 Q 299.033600 98.872070 298.555084 100.000000 Q 298.076569 101.127930 297.529694 102.084961 Q 296.982819 103.041992 296.435944 103.588867 L 297.256256 105.366211 L 300.264069 106.118164 Q 303.203522 106.938477 306.074615 106.938477 Q 310.244537 106.938477 313.389069 105.502930 Q 312.226959 78.774414 312.226959 60.727539 Q 312.226959 33.862305 313.525787 31.196289 Z M 341.894928 90.942383 Q 341.894928 94.086914 341.587311 96.376953 Q 341.279694 98.666992 340.801178 99.794922 Q 340.322662 100.922852 339.775787 101.914062 Q 339.228912 102.905273 338.682037 103.452148 L 339.502350 105.229492 L 357.685944 105.229492 L 378.398834 105.708008 Q 379.766022 104.409180 380.381256 101.367188 Q 380.996490 98.325195 380.825592 95.659180 Q 380.654694 92.993164 379.971100 92.377930 L 377.715240 92.377930 Q 377.100006 94.907227 373.545319 96.616211 Q 369.990631 98.325195 365.000397 98.530273 L 355.498444 98.803711 Q 354.609772 84.243164 354.609772 72.348633 L 372.861725 72.348633 Q 374.502350 72.348633 375.630280 72.758789 Q 376.758209 73.168945 377.031647 73.579102 L 377.305084 73.920898 L 377.441803 72.963867 Q 377.578522 72.006836 377.578522 71.254883 Q 377.578522 69.067383 376.553131 67.597656 Q 375.527740 66.127930 373.613678 65.546875 Q 371.699615 64.965820 370.195709 64.794922 Q 368.691803 64.624023 366.641022 64.624023 L 354.609772 64.624023 Q 354.404694 51.909180 354.883209 39.741211 Q 354.883209 39.604492 355.156647 39.057617 L 377.305084 39.057617 Q 378.945709 39.057617 380.073639 39.433594 Q 381.201569 39.809570 381.475006 40.219727 L 381.816803 40.561523 Q 382.090240 40.561523 382.090240 37.895508 Q 382.090240 35.708008 381.030670 34.238281 Q 379.971100 32.768555 378.091217 32.153320 Q 376.211334 31.538086 374.707428 31.367188 Q 373.203522 31.196289 371.152740 31.196289 L 341.758209 31.196289 L 341.894928 38.784180 Z" transform="scale(0.500000,0.500000) translate(14.000000,5.000000)" fill="#ffffff" opacity="1.000000"></path>
        <path d="M 13.368774 16.210938 L 13.368774 14.171875 L 9.923462 14.171875 L 9.923462 4.695312 L 7.501587 4.695312 L 7.501587 14.171875 L 4.040649 14.171875 L 4.040649 16.210938 Z M 22.407837 16.210938 L 25.868774 16.210938 L 25.868774 4.695312 L 23.626587 4.695312 L 23.626587 12.484375 Q 23.626587 12.820312 23.634399 13.425781 Q 23.642212 14.031250 23.642212 14.359375 L 21.462524 4.695312 L 19.126587 4.695312 L 16.962524 14.359375 Q 16.962524 14.031250 16.970337 13.425781 Q 16.978149 12.820312 16.978149 12.484375 L 16.978149 4.695312 L 14.735962 4.695312 L 14.735962 16.210938 L 18.235962 16.210938 L 20.329712 7.156250 Z" transform="scale(0.500000,0.500000) translate(396.000000,94.000000)" fill="#ffffff" opacity="1.000000"></path>
    </g>
</svg>