<svg width="531" height="123" viewBox="0 0 531 123" fill="none" xmlns="http://www.w3.org/2000/svg">
<g id="Landing-Jeenie-TM">
<path id="Jeenie" fill-rule="evenodd" clip-rule="evenodd" d="M0 91.1141H18.6533C18.9721 99.9624 25.5087 105.224 33.7194 105.224C43.5243 105.224 49.7421 99.8827 49.7421 87.5269V12.0369H69.1128V86.8095C69.1128 111.282 54.9235 123 33.7991 123C11.9572 123 0 108.651 0 91.1141ZM129.377 122.283C106.18 122.283 91.6723 108.332 91.6723 83.9397V73.2579C91.6723 48.7058 107.536 34.9151 128.341 34.9151C149.705 34.9151 164.771 49.6624 164.771 73.2579V83.0629H110.246V87.1283C110.246 98.687 117.341 107.057 129.298 107.057C138.306 107.057 144.603 102.832 145.719 97.571H163.894C162.937 107.695 152.574 122.283 129.377 122.283ZM110.246 70.8665H146.437V69.9099C146.437 57.873 139.262 49.8218 128.421 49.8218C117.5 49.8218 110.246 57.873 110.246 69.9099V70.8665ZM220.332 122.283C197.135 122.283 182.627 108.332 182.627 83.9397V73.2579C182.627 48.7058 198.49 34.9151 219.296 34.9151C240.66 34.9151 255.726 49.6624 255.726 73.2579V83.0629H201.201V87.1283C201.201 98.687 208.295 107.057 220.253 107.057C229.26 107.057 235.558 102.832 236.674 97.571H254.849C253.892 107.695 243.529 122.283 220.332 122.283ZM201.201 70.8665H237.391V69.9099C237.391 57.873 230.217 49.8218 219.376 49.8218C208.455 49.8218 201.201 57.873 201.201 69.9099V70.8665ZM277.567 120.848V36.4297H295.982V51.4161H296.938C299.091 44.7998 305.308 35.1543 322.208 35.1543C339.187 35.1543 350.507 44.6403 350.507 64.0907V120.848H331.694V69.4316C331.694 56.8367 325.078 51.4161 315.512 51.4161C303.076 51.4161 296.38 60.663 296.38 73.8159V120.848H277.567ZM377.928 120.848V36.4297H396.741V120.848H377.928ZM375.138 11.2398C375.138 4.70318 380.001 0 387.255 0C394.668 0 399.611 4.70318 399.611 11.2398C399.611 17.6967 394.668 22.3999 387.255 22.3999C380.081 22.3999 375.138 17.6967 375.138 11.2398ZM458.281 122.283C435.084 122.283 420.576 108.332 420.576 83.9397V73.2579C420.576 48.7058 436.439 34.9151 457.245 34.9151C478.608 34.9151 493.674 49.6624 493.674 73.2579V83.0629H439.149V87.1283C439.149 98.687 446.244 107.057 458.201 107.057C467.209 107.057 473.506 102.832 474.622 97.571H492.797C491.841 107.695 481.478 122.283 458.281 122.283ZM439.149 70.8665H475.34V69.9099C475.34 57.873 468.165 49.8218 457.324 49.8218C446.403 49.8218 439.149 57.873 439.149 69.9099V70.8665Z" fill="#401674"/>
<path id="&#226;&#132;&#162;" fill-rule="evenodd" clip-rule="evenodd" d="M499.796 27H497.16V10.9214H490.505V8.63205H506.504V10.9214H499.796V27ZM513.399 27H511.056V8.63205H513.638L520.64 22.2882H520.799L527.747 8.63205H530.329V27H528.013V13.4503H527.827L521.545 25.6158H519.868L513.559 13.4237H513.399V27Z" fill="#401674"/>
</g>
</svg>
